<svg xmlns="http://www.w3.org/2000/svg" xmlns:xlink="http://www.w3.org/1999/xlink" width="100" height="27" viewBox="0 0 100 27">
    <defs>
        <path id="a" d="M.676.724h23.207v24.075H.676z"/>
        <path id="c" d="M0 25.076h100V1H0z"/>
    </defs>
    <g fill="none" fill-rule="evenodd">
        <path fill="#000" d="M0 3.625h1.638V1.199H0v2.426zm.132 20.85h1.377V7.848H.132v16.625z"/>
        <g transform="translate(0 .076)">
            <path fill="#000" d="M17.55 13.426c3.345 0 5.574-2.028 5.574-5.52 0-3.49-2.23-5.452-5.573-5.452h-6.066v10.972h6.066zM10.079 1.123h7.54c3.998 0 6.98 2.56 6.98 6.783 0 4.224-2.982 6.852-6.98 6.852h-6.133V24.4h-1.407V1.123z"/>
            <g transform="translate(27.2)">
                <mask id="b" fill="#fff">
                    <use xlink:href="#a"/>
                </mask>
                <path fill="#000" d="M12.278 23.435c5.605 0 10.129-4.722 10.129-10.84 0-5.953-4.524-10.507-10.13-10.507-5.603 0-10.126 4.554-10.126 10.508 0 6.117 4.523 10.839 10.127 10.839m0-22.711c6.393 0 11.605 5.187 11.605 11.872 0 6.849-5.212 12.203-11.605 12.203-6.391 0-11.602-5.354-11.602-12.203C.676 5.91 5.886.724 12.278.724" mask="url(#b)"/>
            </g>
            <path fill="#000" d="M56.1 20.807s2.325 2.595 6.128 2.595c2.853 0 5.113-1.796 5.113-4.59 0-6.616-11.735-4.788-11.735-12.07 0-3.092 2.72-6.018 6.884-6.018 3.736 0 5.835 2.162 5.835 2.162l-.787 1.228s-1.967-1.992-5.014-1.992c-3.409 0-5.442 2.325-5.442 4.588 0 6.15 11.734 4.256 11.734 12.037 0 3.358-2.557 6.052-6.654 6.052-4.523 0-7.015-2.893-7.015-2.893l.952-1.099z"/>
            <path fill="#1DA239" d="M96 20.8v-4.002h4v8h-8V20.8z"/>
            <path fill="#E20D18" d="M79.998 20.8H84v3.998h-8v-8h3.998z"/>
            <mask id="d" fill="#fff">
                <use xlink:href="#c"/>
            </mask>
            <path fill="#FDC900" d="M84 24.8h8v-4h-8z" mask="url(#d)"/>
            <path fill="#000" d="M99.974.798H76v16h3.998v-12h16.003v12H100v-16z" mask="url(#d)"/>
        </g>
    </g>
</svg>
